<svg width="1707" height="1981" viewBox="0 0 1707 1981" fill="none" xmlns="http://www.w3.org/2000/svg">
<path d="M349.997 796.028L853.742 416.891L496.335 685.889L349.997 796.028Z" fill="#9558B2"/>
<path d="M496.335 907.54L853.742 1179.89L349.997 796.028L496.335 907.54Z" fill="#CB3C33"/>
<path d="M853.742 416.891L0.742188 0.890625L349.997 483.624L853.742 416.891Z" fill="#389826"/>
<path d="M0.742188 1587.89L853.742 1179.89L349.997 1108.43L0.742188 1587.89Z" fill="#4063D8"/>
<path d="M496.335 685.889L853.742 416.891L349.997 483.624L496.335 685.889Z" fill="#CB3C33"/>
<path fill-rule="evenodd" clip-rule="evenodd" d="M0.742188 529.891L349.997 483.624L496.335 685.889L349.997 796.028L0.742188 529.891Z" fill="#CB3C33"/>
<path d="M496.335 907.54L349.997 796.028L0.742188 1058.89L349.997 1108.43L496.335 907.54Z" fill="#9558B2"/>
<path d="M853.742 1179.89L496.335 907.54L349.997 1108.43L853.742 1179.89Z" fill="#9558B2"/>
<path d="M1357.49 792.753L853.742 1171.89L1211.15 902.892L1357.49 792.753Z" fill="#9558B2"/>
<path d="M1211.15 681.241L853.742 408.89L1357.49 792.753L1211.15 681.241Z" fill="#CB3C33"/>
<path d="M853.742 1171.89L1706.74 1587.89L1357.49 1105.16L853.742 1171.89Z" fill="#389826"/>
<path d="M1706.74 0.89072L853.742 408.89L1357.49 480.348L1706.74 0.89072Z" fill="#4063D8"/>
<path d="M1211.15 902.892L853.742 1171.89L1357.49 1105.16L1211.15 902.892Z" fill="#CB3C33"/>
<path fill-rule="evenodd" clip-rule="evenodd" d="M1706.74 1058.89L1357.49 1105.16L1211.15 902.892L1357.49 792.753L1706.74 1058.89Z" fill="#CB3C33"/>
<path d="M1211.15 681.241L1357.49 792.753L1706.74 529.891L1357.49 480.348L1211.15 681.241Z" fill="#9558B2"/>
<path d="M853.742 408.89L1211.15 681.241L1357.49 480.348L853.742 408.89Z" fill="#9558B2"/>
<path d="M1658.02 1915.32C1655.52 1915.32 1653.48 1914.52 1651.89 1912.93C1650.3 1911.11 1649.5 1909.07 1649.5 1906.8V1681.93C1649.5 1679.43 1650.3 1677.39 1651.89 1675.8C1653.48 1674.21 1655.52 1673.41 1658.02 1673.41H1698.23C1700.72 1673.41 1702.77 1674.21 1704.36 1675.8C1705.95 1677.39 1706.74 1679.43 1706.74 1681.93V1906.8C1706.74 1909.07 1705.95 1911.11 1704.36 1912.93C1702.77 1914.52 1700.72 1915.32 1698.23 1915.32H1658.02Z" fill="black"/>
<path d="M1516.71 1980.05C1514.21 1980.05 1512.17 1979.14 1510.58 1977.32C1508.99 1975.73 1508.2 1973.8 1508.2 1971.53V1943.93C1508.2 1941.44 1508.99 1939.39 1510.58 1937.8C1512.17 1936.21 1514.21 1935.42 1516.71 1935.42H1529.32C1535 1935.42 1539.31 1934.28 1542.27 1932.01C1545.22 1929.97 1547.26 1927.01 1548.4 1923.15C1549.54 1919.52 1550.1 1915.31 1550.1 1910.54V1746.66C1550.1 1744.16 1550.9 1742.12 1552.49 1740.53C1554.31 1738.94 1556.35 1738.14 1558.62 1738.14H1600.87C1603.37 1738.14 1605.41 1738.94 1607 1740.53C1608.59 1742.12 1609.39 1744.16 1609.39 1746.66V1911.91C1609.39 1926.67 1606.43 1939.05 1600.53 1949.05C1594.85 1959.27 1586.56 1966.99 1575.66 1972.21C1564.75 1977.44 1551.47 1980.05 1535.79 1980.05H1516.71ZM1558.28 1712.59C1556.01 1712.59 1553.96 1711.8 1552.15 1710.21C1550.56 1708.62 1549.76 1706.57 1549.76 1704.07V1673.41C1549.76 1671.14 1550.56 1669.21 1552.15 1667.62C1553.96 1665.8 1556.01 1664.89 1558.28 1664.89H1601.21C1603.48 1664.89 1605.41 1665.8 1607 1667.62C1608.82 1669.21 1609.73 1671.14 1609.73 1673.41V1704.07C1609.73 1706.57 1608.82 1708.62 1607 1710.21C1605.41 1711.8 1603.48 1712.59 1601.21 1712.59H1558.28Z" fill="black"/>
<path d="M1458.01 1915.31C1455.52 1915.31 1453.47 1914.52 1451.88 1912.93C1450.29 1911.11 1449.5 1909.07 1449.5 1906.8V1863.53C1449.5 1861.03 1450.29 1858.98 1451.88 1857.39C1453.47 1855.8 1455.52 1855.01 1458.01 1855.01H1501.28C1503.56 1855.01 1505.49 1855.8 1507.08 1857.39C1508.89 1858.98 1509.8 1861.03 1509.8 1863.53V1906.8C1509.8 1909.07 1508.89 1911.11 1507.08 1912.93C1505.49 1914.52 1503.56 1915.31 1501.28 1915.31H1458.01Z" fill="black"/>
<path d="M1182.31 1915.32C1180.04 1915.32 1177.99 1914.52 1176.17 1912.93C1174.58 1911.11 1173.79 1909.07 1173.79 1906.8V1685.33C1173.79 1682.84 1174.58 1680.79 1176.17 1679.2C1177.99 1677.61 1180.04 1676.82 1182.31 1676.82H1219.1C1222.97 1676.82 1225.8 1677.84 1227.62 1679.88C1229.44 1681.7 1230.57 1683.18 1231.03 1684.31L1290.99 1791.64L1350.96 1684.31C1351.64 1683.18 1352.78 1681.7 1354.37 1679.88C1356.18 1677.84 1359.02 1676.82 1362.88 1676.82H1399.34C1401.84 1676.82 1403.88 1677.61 1405.47 1679.2C1407.29 1680.79 1408.2 1682.84 1408.2 1685.33V1906.8C1408.2 1909.07 1407.29 1911.11 1405.47 1912.93C1403.88 1914.52 1401.84 1915.32 1399.34 1915.32H1358.8C1356.3 1915.32 1354.14 1914.52 1352.32 1912.93C1350.73 1911.11 1349.94 1909.07 1349.94 1906.8V1779.03L1311.78 1850.24C1310.64 1852.28 1309.17 1854.1 1307.35 1855.69C1305.53 1857.28 1303.03 1858.08 1299.85 1858.08H1282.14C1278.96 1858.08 1276.46 1857.28 1274.64 1855.69C1272.82 1854.1 1271.35 1852.28 1270.21 1850.24L1231.71 1779.03V1906.8C1231.71 1909.07 1230.92 1911.11 1229.33 1912.93C1227.74 1914.52 1225.69 1915.32 1223.19 1915.32H1182.31Z" fill="black"/>
<path d="M1045.57 1918.72C1026.49 1918.72 1010.36 1915.66 997.185 1909.52C984.238 1903.39 974.244 1894.65 967.202 1883.29C960.388 1871.7 956.527 1857.96 955.618 1842.06C955.391 1837.52 955.277 1832.41 955.277 1826.73C955.277 1820.83 955.391 1815.71 955.618 1811.4C956.527 1795.27 960.615 1781.53 967.884 1770.17C975.152 1758.82 985.26 1750.07 998.207 1743.94C1011.38 1737.8 1027.17 1734.74 1045.57 1734.74C1064.19 1734.74 1079.98 1737.8 1092.93 1743.94C1106.1 1750.07 1116.32 1758.82 1123.59 1770.17C1130.86 1781.53 1134.95 1795.27 1135.86 1811.4C1136.08 1815.71 1136.2 1820.83 1136.2 1826.73C1136.2 1832.41 1136.08 1837.52 1135.86 1842.06C1134.95 1857.96 1130.97 1871.7 1123.93 1883.29C1117.12 1894.65 1107.12 1903.39 1093.95 1909.52C1081 1915.66 1064.87 1918.72 1045.57 1918.72ZM1045.57 1877.16C1055.79 1877.16 1063.17 1874.09 1067.71 1867.96C1072.48 1861.82 1075.21 1852.62 1075.89 1840.36C1076.12 1836.95 1076.23 1832.41 1076.23 1826.73C1076.23 1821.05 1076.12 1816.51 1075.89 1813.1C1075.21 1801.06 1072.48 1791.98 1067.71 1785.85C1063.17 1779.49 1055.79 1776.31 1045.57 1776.31C1035.8 1776.31 1028.42 1779.49 1023.42 1785.85C1018.65 1791.98 1016.04 1801.06 1015.58 1813.1C1015.36 1816.51 1015.24 1821.05 1015.24 1826.73C1015.24 1832.41 1015.36 1836.95 1015.58 1840.36C1016.04 1852.62 1018.65 1861.82 1023.42 1867.96C1028.42 1874.09 1035.8 1877.16 1045.57 1877.16Z" fill="black"/>
<path d="M734.119 1915.32C731.621 1915.32 729.577 1914.52 727.987 1912.93C726.397 1911.11 725.602 1909.07 725.602 1906.8V1685.33C725.602 1682.84 726.397 1680.79 727.987 1679.2C729.577 1677.61 731.621 1676.82 734.119 1676.82H838.037C857.571 1676.82 873.585 1679.54 886.077 1684.99C898.57 1690.44 907.769 1698.28 913.675 1708.5C919.808 1718.5 922.874 1730.42 922.874 1744.28C922.874 1752.45 921.284 1759.72 918.104 1766.08C915.152 1772.22 911.404 1777.33 906.861 1781.42C902.545 1785.5 898.457 1788.46 894.595 1790.27C903.227 1794.36 910.836 1801.06 917.423 1810.38C924.237 1819.69 927.644 1830.59 927.644 1843.08C927.644 1858.08 924.237 1871.02 917.423 1881.93C910.836 1892.6 901.069 1900.89 888.122 1906.8C875.402 1912.48 859.729 1915.32 841.103 1915.32H734.119ZM786.93 1871.02H834.289C844.056 1871.02 851.438 1868.18 856.435 1862.51C861.433 1856.83 863.931 1850.35 863.931 1843.08C863.931 1835.13 861.319 1828.43 856.095 1822.98C851.098 1817.53 843.829 1814.81 834.289 1814.81H786.93V1871.02ZM786.93 1771.53H831.223C840.535 1771.53 847.463 1769.15 852.006 1764.38C856.776 1759.38 859.161 1753.25 859.161 1745.98C859.161 1738.71 856.776 1732.81 852.006 1728.26C847.463 1723.49 840.535 1721.11 831.223 1721.11H786.93V1771.53Z" fill="black"/>
<path d="M498.549 1915.32C496.051 1915.32 494.006 1914.52 492.416 1912.93C490.826 1911.11 490.031 1909.07 490.031 1906.8V1685.33C490.031 1682.84 490.826 1680.79 492.416 1679.2C494.006 1677.61 496.051 1676.82 498.549 1676.82H591.223C620.751 1676.82 643.92 1683.63 660.729 1697.26C677.537 1710.66 685.941 1729.74 685.941 1754.5C685.941 1770.63 682.08 1784.25 674.357 1795.38C666.634 1806.51 656.413 1814.92 643.693 1820.6L690.37 1904.41C691.052 1905.78 691.393 1907.02 691.393 1908.16C691.393 1909.98 690.598 1911.68 689.008 1913.27C687.645 1914.63 686.055 1915.32 684.238 1915.32H638.923C634.607 1915.32 631.427 1914.29 629.383 1912.25C627.339 1909.98 625.862 1907.93 624.954 1906.12L586.112 1831.16H551.36V1906.8C551.36 1909.07 550.451 1911.11 548.634 1912.93C547.044 1914.52 545 1915.32 542.501 1915.32H498.549ZM551.36 1782.78H590.542C601.217 1782.78 609.167 1780.17 614.392 1774.94C619.843 1769.72 622.569 1762.68 622.569 1753.82C622.569 1744.96 619.956 1737.8 614.732 1732.35C609.735 1726.9 601.672 1724.18 590.542 1724.18H551.36V1782.78Z" fill="black"/>
<path d="M232.518 1915.32C230.701 1915.32 228.998 1914.63 227.408 1913.27C226.045 1911.68 225.363 1909.98 225.363 1908.16C225.363 1907.02 225.477 1906 225.704 1905.09L305.772 1686.36C306.453 1683.86 307.816 1681.7 309.86 1679.88C312.132 1677.84 315.198 1676.82 319.059 1676.82H369.485C373.346 1676.82 376.299 1677.84 378.343 1679.88C380.615 1681.7 382.091 1683.86 382.773 1686.36L462.5 1905.09C462.954 1906 463.181 1907.02 463.181 1908.16C463.181 1909.98 462.386 1911.68 460.796 1913.27C459.433 1914.63 457.73 1915.32 455.685 1915.32H413.778C410.37 1915.32 407.758 1914.52 405.941 1912.93C404.351 1911.11 403.329 1909.52 402.875 1908.16L389.587 1873.41H298.617L285.669 1908.16C285.215 1909.52 284.193 1911.11 282.603 1912.93C281.013 1914.52 278.287 1915.32 274.426 1915.32H232.518ZM312.586 1824.35H375.958L344.272 1734.4L312.586 1824.35Z" fill="black"/>
<path d="M160.537 1937.46C156.902 1937.46 154.063 1936.44 152.019 1934.39C150.202 1932.58 148.725 1930.99 147.59 1929.62L136.005 1914.29C127.147 1917.24 117.039 1918.72 105.682 1918.72C84.7847 1918.72 66.6134 1915.31 51.1677 1908.5C35.9492 1901.68 23.9107 1891.46 15.0521 1877.83C6.42074 1863.98 1.76433 1846.72 1.0829 1826.05C0.855758 1816.28 0.742188 1806.51 0.742188 1796.74C0.742188 1786.75 0.855758 1776.87 1.0829 1767.1C1.76433 1746.66 6.53431 1729.51 15.3928 1715.65C24.2514 1701.57 36.4035 1691.01 51.8491 1683.97C67.2948 1676.93 85.239 1673.41 105.682 1673.41C126.352 1673.41 144.41 1676.93 159.855 1683.97C175.301 1691.01 187.453 1701.57 196.311 1715.65C205.397 1729.51 210.167 1746.66 210.621 1767.1C211.076 1776.87 211.303 1786.75 211.303 1796.74C211.303 1806.51 211.076 1816.28 210.621 1826.05C209.486 1854.21 201.309 1876.02 186.09 1891.46L210.962 1926.9C211.189 1927.12 211.416 1927.58 211.644 1928.26C211.871 1928.94 211.984 1929.62 211.984 1930.3C212.211 1932.12 211.644 1933.71 210.281 1935.07C208.918 1936.66 207.214 1937.46 205.17 1937.46H160.537ZM105.682 1869.66C117.72 1869.66 127.487 1866.02 134.983 1858.75C142.706 1851.49 146.795 1839.9 147.249 1824C147.703 1814.01 147.93 1804.58 147.93 1795.72C147.93 1786.86 147.703 1777.66 147.249 1768.12C147.022 1757.45 145.091 1748.82 141.457 1742.23C137.822 1735.42 132.939 1730.42 126.806 1727.24C120.9 1724.06 113.859 1722.47 105.682 1722.47C97.959 1722.47 91.0311 1724.06 84.8983 1727.24C78.7655 1730.42 73.8819 1735.42 70.2477 1742.23C66.8405 1748.82 64.9098 1757.45 64.4555 1768.12C64.2284 1777.66 64.1148 1786.86 64.1148 1795.72C64.1148 1804.58 64.2284 1814.01 64.4555 1824C65.137 1839.9 69.2255 1851.49 76.7212 1858.75C84.2169 1866.02 93.8704 1869.66 105.682 1869.66Z" fill="black"/>
</svg>
