<svg width="1707" height="1980" viewBox="0 0 1707 1980" fill="none" xmlns="http://www.w3.org/2000/svg">
<path d="M350.005 795.138L853.75 416L496.343 684.998L350.005 795.138Z" fill="#9558B2"/>
<path d="M496.343 906.65L853.75 1179L350.005 795.138L496.343 906.65Z" fill="#CB3C33"/>
<path d="M853.75 416L0.75 0L350.005 482.733L853.75 416Z" fill="#389826"/>
<path d="M0.75 1587L853.75 1179L350.005 1107.54L0.75 1587Z" fill="#4063D8"/>
<path d="M496.343 684.998L853.75 416L350.005 482.733L496.343 684.998Z" fill="#CB3C33"/>
<path fill-rule="evenodd" clip-rule="evenodd" d="M0.75 529L350.005 482.733L496.343 684.998L350.005 795.138L0.75 529Z" fill="#CB3C33"/>
<path d="M496.343 906.65L350.005 795.138L0.75 1058L350.005 1107.54L496.343 906.65Z" fill="#9558B2"/>
<path d="M853.75 1179L496.343 906.65L350.005 1107.54L853.75 1179Z" fill="#9558B2"/>
<path d="M1357.5 791.862L853.75 1171L1211.16 902.002L1357.5 791.862Z" fill="#9558B2"/>
<path d="M1211.16 680.35L853.75 408L1357.5 791.862L1211.16 680.35Z" fill="#CB3C33"/>
<path d="M853.75 1171L1706.75 1587L1357.5 1104.27L853.75 1171Z" fill="#389826"/>
<path d="M1706.75 9.45926e-05L853.75 408L1357.5 479.457L1706.75 9.45926e-05Z" fill="#4063D8"/>
<path d="M1211.16 902.002L853.75 1171L1357.5 1104.27L1211.16 902.002Z" fill="#CB3C33"/>
<path fill-rule="evenodd" clip-rule="evenodd" d="M1706.75 1058L1357.5 1104.27L1211.16 902.002L1357.5 791.862L1706.75 1058Z" fill="#CB3C33"/>
<path d="M1211.16 680.35L1357.5 791.862L1706.75 529L1357.5 479.457L1211.16 680.35Z" fill="#9558B2"/>
<path d="M853.75 408L1211.16 680.35L1357.5 479.457L853.75 408Z" fill="#9558B2"/>
<path d="M1658.03 1914.43C1655.53 1914.43 1653.49 1913.63 1651.9 1912.04C1650.31 1910.22 1649.51 1908.18 1649.51 1905.91V1681.04C1649.51 1678.54 1650.31 1676.49 1651.9 1674.9C1653.49 1673.31 1655.53 1672.52 1658.03 1672.52H1698.23C1700.73 1672.52 1702.78 1673.31 1704.37 1674.9C1705.96 1676.49 1706.75 1678.54 1706.75 1681.04V1905.91C1706.75 1908.18 1705.96 1910.22 1704.37 1912.04C1702.78 1913.63 1700.73 1914.43 1698.23 1914.43H1658.03Z" fill="white"/>
<path d="M1516.72 1979.16C1514.22 1979.16 1512.18 1978.25 1510.59 1976.43C1509 1974.84 1508.2 1972.91 1508.2 1970.64V1943.04C1508.2 1940.55 1509 1938.5 1510.59 1936.91C1512.18 1935.32 1514.22 1934.53 1516.72 1934.53H1529.33C1535.01 1934.53 1539.32 1933.39 1542.27 1931.12C1545.23 1929.07 1547.27 1926.12 1548.41 1922.26C1549.54 1918.63 1550.11 1914.42 1550.11 1909.65V1745.77C1550.11 1743.27 1550.91 1741.23 1552.5 1739.64C1554.31 1738.05 1556.36 1737.25 1558.63 1737.25H1600.88C1603.38 1737.25 1605.42 1738.05 1607.01 1739.64C1608.6 1741.23 1609.39 1743.27 1609.39 1745.77V1911.02C1609.39 1925.78 1606.44 1938.16 1600.54 1948.15C1594.86 1958.38 1586.57 1966.1 1575.66 1971.32C1564.76 1976.55 1551.47 1979.16 1535.8 1979.16H1516.72ZM1558.29 1711.7C1556.02 1711.7 1553.97 1710.9 1552.16 1709.31C1550.57 1707.72 1549.77 1705.68 1549.77 1703.18V1672.52C1549.77 1670.25 1550.57 1668.32 1552.16 1666.73C1553.97 1664.91 1556.02 1664 1558.29 1664H1601.22C1603.49 1664 1605.42 1664.91 1607.01 1666.73C1608.83 1668.32 1609.74 1670.25 1609.74 1672.52V1703.18C1609.74 1705.68 1608.83 1707.72 1607.01 1709.31C1605.42 1710.9 1603.49 1711.7 1601.22 1711.7H1558.29Z" fill="white"/>
<path d="M1458.02 1914.42C1455.52 1914.42 1453.48 1913.63 1451.89 1912.04C1450.3 1910.22 1449.5 1908.18 1449.5 1905.91V1862.64C1449.5 1860.14 1450.3 1858.09 1451.89 1856.5C1453.48 1854.91 1455.52 1854.12 1458.02 1854.12H1501.29C1503.56 1854.12 1505.49 1854.91 1507.08 1856.5C1508.9 1858.09 1509.81 1860.14 1509.81 1862.64V1905.91C1509.81 1908.18 1508.9 1910.22 1507.08 1912.04C1505.49 1913.63 1503.56 1914.42 1501.29 1914.42H1458.02Z" fill="white"/>
<path d="M1182.31 1914.42C1180.04 1914.42 1178 1913.63 1176.18 1912.04C1174.59 1910.22 1173.8 1908.18 1173.8 1905.91V1684.44C1173.8 1681.95 1174.59 1679.9 1176.18 1678.31C1178 1676.72 1180.04 1675.93 1182.31 1675.93H1219.11C1222.97 1675.93 1225.81 1676.95 1227.63 1678.99C1229.45 1680.81 1230.58 1682.29 1231.04 1683.42L1291 1790.75L1350.97 1683.42C1351.65 1682.29 1352.78 1680.81 1354.37 1678.99C1356.19 1676.95 1359.03 1675.93 1362.89 1675.93H1399.35C1401.85 1675.93 1403.89 1676.72 1405.48 1678.31C1407.3 1679.9 1408.21 1681.95 1408.21 1684.44V1905.91C1408.21 1908.18 1407.3 1910.22 1405.48 1912.04C1403.89 1913.63 1401.85 1914.42 1399.35 1914.42H1358.8C1356.31 1914.42 1354.15 1913.63 1352.33 1912.04C1350.74 1910.22 1349.95 1908.18 1349.95 1905.91V1778.14L1311.79 1849.35C1310.65 1851.39 1309.17 1853.21 1307.36 1854.8C1305.54 1856.39 1303.04 1857.19 1299.86 1857.19H1282.14C1278.96 1857.19 1276.47 1856.39 1274.65 1854.8C1272.83 1853.21 1271.35 1851.39 1270.22 1849.35L1231.72 1778.14V1905.91C1231.72 1908.18 1230.92 1910.22 1229.33 1912.04C1227.74 1913.63 1225.7 1914.42 1223.2 1914.42H1182.31Z" fill="white"/>
<path d="M1045.57 1917.83C1026.49 1917.83 1010.37 1914.77 997.193 1908.63C984.246 1902.5 974.252 1893.76 967.21 1882.4C960.396 1870.81 956.534 1857.07 955.626 1841.17C955.399 1836.63 955.285 1831.52 955.285 1825.84C955.285 1819.93 955.399 1814.82 955.626 1810.51C956.534 1794.38 960.623 1780.64 967.892 1769.28C975.16 1757.92 985.268 1749.18 998.215 1743.05C1011.39 1736.91 1027.18 1733.85 1045.57 1733.85C1064.2 1733.85 1079.99 1736.91 1092.93 1743.05C1106.11 1749.18 1116.33 1757.92 1123.6 1769.28C1130.87 1780.64 1134.95 1794.38 1135.86 1810.51C1136.09 1814.82 1136.2 1819.93 1136.2 1825.84C1136.2 1831.52 1136.09 1836.63 1135.86 1841.17C1134.95 1857.07 1130.98 1870.81 1123.94 1882.4C1117.12 1893.76 1107.13 1902.5 1093.96 1908.63C1081.01 1914.77 1064.88 1917.83 1045.57 1917.83ZM1045.57 1876.27C1055.8 1876.27 1063.18 1873.2 1067.72 1867.07C1072.49 1860.93 1075.22 1851.73 1075.9 1839.47C1076.12 1836.06 1076.24 1831.52 1076.24 1825.84C1076.24 1820.16 1076.12 1815.62 1075.9 1812.21C1075.22 1800.17 1072.49 1791.09 1067.72 1784.95C1063.18 1778.59 1055.8 1775.41 1045.57 1775.41C1035.81 1775.41 1028.42 1778.59 1023.43 1784.95C1018.66 1791.09 1016.05 1800.17 1015.59 1812.21C1015.36 1815.62 1015.25 1820.16 1015.25 1825.84C1015.25 1831.52 1015.36 1836.06 1015.59 1839.47C1016.05 1851.73 1018.66 1860.93 1023.43 1867.07C1028.42 1873.2 1035.81 1876.27 1045.57 1876.27Z" fill="white"/>
<path d="M734.127 1914.42C731.629 1914.42 729.584 1913.63 727.994 1912.04C726.404 1910.22 725.609 1908.18 725.609 1905.91V1684.44C725.609 1681.95 726.404 1679.9 727.994 1678.31C729.584 1676.72 731.629 1675.93 734.127 1675.93H838.045C857.579 1675.93 873.592 1678.65 886.085 1684.1C898.578 1689.55 907.777 1697.39 913.683 1707.61C919.816 1717.61 922.882 1729.53 922.882 1743.39C922.882 1751.56 921.292 1758.83 918.112 1765.19C915.159 1771.33 911.412 1776.44 906.869 1780.52C902.553 1784.61 898.464 1787.57 894.603 1789.38C903.234 1793.47 910.844 1800.17 917.431 1809.49C924.245 1818.8 927.652 1829.7 927.652 1842.19C927.652 1857.19 924.245 1870.13 917.431 1881.04C910.844 1891.71 901.077 1900 888.129 1905.91C875.41 1911.59 859.737 1914.42 841.111 1914.42H734.127ZM786.938 1870.13H834.297C844.064 1870.13 851.446 1867.29 856.443 1861.61C861.44 1855.94 863.939 1849.46 863.939 1842.19C863.939 1834.24 861.327 1827.54 856.103 1822.09C851.105 1816.64 843.837 1813.91 834.297 1813.91H786.938V1870.13ZM786.938 1770.64H831.23C840.543 1770.64 847.471 1768.26 852.014 1763.49C856.784 1758.49 859.169 1752.36 859.169 1745.09C859.169 1737.82 856.784 1731.92 852.014 1727.37C847.471 1722.6 840.543 1720.22 831.23 1720.22H786.938V1770.64Z" fill="white"/>
<path d="M498.557 1914.42C496.058 1914.42 494.014 1913.63 492.424 1912.04C490.834 1910.22 490.039 1908.18 490.039 1905.91V1684.44C490.039 1681.95 490.834 1679.9 492.424 1678.31C494.014 1676.72 496.058 1675.93 498.557 1675.93H591.231C620.759 1675.93 643.928 1682.74 660.736 1696.37C677.545 1709.77 685.949 1728.85 685.949 1753.61C685.949 1769.74 682.088 1783.36 674.365 1794.49C666.642 1805.62 656.421 1814.03 643.701 1819.71L690.378 1903.52C691.06 1904.88 691.4 1906.13 691.4 1907.27C691.4 1909.09 690.605 1910.79 689.015 1912.38C687.653 1913.74 686.063 1914.42 684.246 1914.42H638.931C634.615 1914.42 631.435 1913.4 629.391 1911.36C627.346 1909.09 625.87 1907.04 624.961 1905.23L586.12 1830.27H551.367V1905.91C551.367 1908.18 550.459 1910.22 548.642 1912.04C547.052 1913.63 545.007 1914.42 542.509 1914.42H498.557ZM551.367 1781.89H590.549C601.225 1781.89 609.175 1779.28 614.399 1774.05C619.851 1768.83 622.576 1761.79 622.576 1752.93C622.576 1744.07 619.964 1736.91 614.74 1731.46C609.743 1726.01 601.679 1723.28 590.549 1723.28H551.367V1781.89Z" fill="white"/>
<path d="M232.526 1914.42C230.709 1914.42 229.005 1913.74 227.415 1912.38C226.053 1910.79 225.371 1909.09 225.371 1907.27C225.371 1906.13 225.485 1905.11 225.712 1904.2L305.779 1685.47C306.461 1682.97 307.824 1680.81 309.868 1678.99C312.139 1676.95 315.206 1675.93 319.067 1675.93H369.493C373.354 1675.93 376.307 1676.95 378.351 1678.99C380.623 1680.81 382.099 1682.97 382.781 1685.47L462.507 1904.2C462.962 1905.11 463.189 1906.13 463.189 1907.27C463.189 1909.09 462.394 1910.79 460.804 1912.38C459.441 1913.74 457.737 1914.42 455.693 1914.42H413.785C410.378 1914.42 407.766 1913.63 405.949 1912.04C404.359 1910.22 403.337 1908.63 402.883 1907.27L389.595 1872.52H298.624L285.677 1907.27C285.223 1908.63 284.201 1910.22 282.611 1912.04C281.021 1913.63 278.295 1914.42 274.434 1914.42H232.526ZM312.594 1823.45H375.966L344.28 1733.51L312.594 1823.45Z" fill="white"/>
<path d="M160.544 1936.57C156.91 1936.57 154.071 1935.55 152.027 1933.5C150.209 1931.68 148.733 1930.09 147.597 1928.73L136.013 1913.4C127.155 1916.35 117.047 1917.83 105.69 1917.83C84.7926 1917.83 66.6212 1914.42 51.1755 1907.61C35.957 1900.79 23.9185 1890.57 15.0599 1876.94C6.42855 1863.09 1.77214 1845.83 1.09071 1825.16C0.863571 1815.39 0.75 1805.62 0.75 1795.85C0.75 1785.86 0.863571 1775.98 1.09071 1766.21C1.77214 1745.77 6.54212 1728.62 15.4007 1714.76C24.2592 1700.68 36.4113 1690.12 51.857 1683.08C67.3026 1676.04 85.2468 1672.52 105.69 1672.52C126.36 1672.52 144.417 1676.04 159.863 1683.08C175.309 1690.12 187.461 1700.68 196.319 1714.76C205.405 1728.62 210.175 1745.77 210.629 1766.21C211.084 1775.98 211.311 1785.86 211.311 1795.85C211.311 1805.62 211.084 1815.39 210.629 1825.16C209.494 1853.32 201.316 1875.13 186.098 1890.57L210.97 1926.01C211.197 1926.23 211.424 1926.69 211.651 1927.37C211.879 1928.05 211.992 1928.73 211.992 1929.41C212.219 1931.23 211.651 1932.82 210.289 1934.18C208.926 1935.77 207.222 1936.57 205.178 1936.57H160.544ZM105.69 1868.77C117.728 1868.77 127.495 1865.13 134.991 1857.86C142.714 1850.59 146.802 1839.01 147.257 1823.11C147.711 1813.12 147.938 1803.69 147.938 1794.83C147.938 1785.97 147.711 1776.77 147.257 1767.23C147.029 1756.56 145.099 1747.93 141.464 1741.34C137.83 1734.53 132.947 1729.53 126.814 1726.35C120.908 1723.17 113.867 1721.58 105.69 1721.58C97.9668 1721.58 91.039 1723.17 84.9061 1726.35C78.7733 1729.53 73.8897 1734.53 70.2555 1741.34C66.8483 1747.93 64.9176 1756.56 64.4633 1767.23C64.2362 1776.77 64.1226 1785.97 64.1226 1794.83C64.1226 1803.69 64.2362 1813.12 64.4633 1823.11C65.1448 1839.01 69.2333 1850.59 76.729 1857.86C84.2247 1865.13 93.8782 1868.77 105.69 1868.77Z" fill="white"/>
</svg>
